# xmcd
#
# Track frame offsets:
#	150
#	18040
#	38375
#	58887
#	74540
#	91090
#
# Disc length: 1420 seconds
#
# Revision: 1
# Processed by: cddbd v1.5.2PL0 Copyright (c) Steve Scherf et al.
# Submitted via: audiograbber 1.83.01
#
DISCID=40058a06
DTITLE=Jitterbug Thompson (Caleb Sweazy) - Jitterbug Thompson
DYEAR=2004
DGENRE=Americana
TTITLE0=Fool
TTITLE1=Easy
TTITLE2=I Told You
TTITLE3=1 Track Mind
TTITLE4=442
TTITLE5=Model A
EXTD=Superb self produced EP
EXTT0=
EXTT1=
EXTT2=
EXTT3=
EXTT4=
EXTT5=
PLAYORDER=
